{
	"asset":{
		"generator":"Khronos glTF Blender I/O v3.5.30",
		"version":"2.0"
	},
	"scene":0,
	"scenes":[
		{
			"name":"Scene",
			"nodes":[
				0
			]
		}
	],
	"nodes":[
		{
			"mesh":0,
			"name":"SE5"
		}
	],
	"meshes":[
		{
			"name":"Cube.008",
			"primitives":[
				{
					"attributes":{
						"POSITION":0,
						"NORMAL":1
					},
					"indices":2
				}
			]
		}
	],
	"accessors":[
		{
			"bufferView":0,
			"componentType":5126,
			"count":24651,
			"max":[
				2.787147283554077,
				1.9855542182922363,
				0.9032278060913086
			],
			"min":[
				-2.787147283554077,
				0,
				-3.2735657691955566
			],
			"type":"VEC3"
		},
		{
			"bufferView":1,
			"componentType":5126,
			"count":24651,
			"type":"VEC3"
		},
		{
			"bufferView":2,
			"componentType":5123,
			"count":41328,
			"type":"SCALAR"
		}
	],
	"bufferViews":[
		{
			"buffer":0,
			"byteLength":295812,
			"byteOffset":0,
			"target":34962
		},
		{
			"buffer":0,
			"byteLength":295812,
			"byteOffset":295812,
			"target":34962
		},
		{
			"buffer":0,
			"byteLength":82656,
			"byteOffset":591624,
			"target":34963
		}
	],
	"buffers":[
		{
			"byteLength":674280,
			"uri":"data:application/octet-stream;base64,"
		}
	]
}
