{
	"asset":{
		"generator":"Khronos glTF Blender I/O v3.5.30",
		"version":"2.0"
	},
	"scene":0,
	"scenes":[
		{
			"name":"Scene",
			"nodes":[
				0,
				1,
				2,
				3,
				4,
				5,
				6,
				7,
				8,
				9,
				10,
				11,
				12,
				13,
				14,
				15,
				16,
				17,
				18,
				19,
				20,
				21,
				22,
				23,
				24,
				25
			]
		}
	],
	"nodes":[
		{
			"name":"Empty",
			"scale":[
				2.05653977394104,
				2.05653977394104,
				2.05653977394104
			],
			"translation":[
				-4.538009166717529,
				-0.31677284836769104,
				0.05266709253191948
			]
		},
		{
			"name":"Plane.025",
			"rotation":[
				0,
				0.15953557193279266,
				0,
				0.9871922135353088
			],
			"scale":[
				0.22584101557731628,
				0.22584104537963867,
				0.22584101557731628
			],
			"translation":[
				-1.150650978088379,
				0.10093872249126434,
				-1.4188939332962036
			]
		},
		{
			"name":"base",
			"rotation":[
				0,
				0.04835672676563263,
				0,
				0.9988301396369934
			],
			"scale":[
				0.07201102375984192,
				0.07201101630926132,
				0.07201102375984192
			],
			"translation":[
				0.6593132019042969,
				-0.043578583747148514,
				0.09404747933149338
			]
		},
		{
			"name":"casa_group.000",
			"rotation":[
				0,
				0.14852772653102875,
				0,
				0.9889083504676819
			],
			"translation":[
				-0.6552739143371582,
				0.12961459159851074,
				-1.5961909294128418
			]
		},
		{
			"name":"casa_group.001",
			"rotation":[
				0,
				0.14852772653102875,
				0,
				0.9889083504676819
			],
			"translation":[
				-1.1959583759307861,
				0.1781371384859085,
				-1.4315471649169922
			]
		},
		{
			"name":"casa_group.002",
			"rotation":[
				0,
				0.14852772653102875,
				0,
				0.9889083504676819
			],
			"translation":[
				-1.7339069843292236,
				0.23269467055797577,
				-1.2590644359588623
			]
		},
		{
			"name":"casa_group.003",
			"rotation":[
				0,
				0.14852772653102875,
				0,
				0.9889083504676819
			],
			"translation":[
				-2.270505905151367,
				0.28064337372779846,
				-1.0846306085586548
			]
		},
		{
			"name":"casa_group.004",
			"rotation":[
				0,
				0.14852772653102875,
				0,
				0.9889083504676819
			],
			"translation":[
				-2.809757947921753,
				0.33719488978385925,
				-0.9139832258224487
			]
		},
		{
			"name":"casa_group.005",
			"rotation":[
				0,
				0.14852772653102875,
				0,
				0.9889083504676819
			],
			"translation":[
				-3.348752975463867,
				0.3824020326137543,
				-0.7489609122276306
			]
		},
		{
			"name":"casa_group.006",
			"rotation":[
				0,
				-0.025637999176979065,
				0,
				0.9996713399887085
			],
			"translation":[
				-3.985980272293091,
				0.4464801549911499,
				-0.6704882979393005
			]
		},
		{
			"name":"casa_group.007",
			"rotation":[
				0,
				-0.025637999176979065,
				0,
				0.9996713399887085
			],
			"translation":[
				-4.561870574951172,
				0.5025168657302856,
				-0.7173410654067993
			]
		},
		{
			"name":"casa_group.008",
			"rotation":[
				0,
				-0.025637999176979065,
				0,
				0.9996713399887085
			],
			"translation":[
				-5.11029577255249,
				0.567398190498352,
				-0.754001259803772
			]
		},
		{
			"name":"casa_group.009",
			"rotation":[
				0,
				-0.025637999176979065,
				0,
				0.9996713399887085
			],
			"translation":[
				-5.68968391418457,
				0.622262179851532,
				-0.794248640537262
			]
		},
		{
			"name":"casa_group.010",
			"rotation":[
				0,
				-0.025637999176979065,
				0,
				0.9996713399887085
			],
			"translation":[
				-4.020181179046631,
				0.2734782099723816,
				0.32564061880111694
			]
		},
		{
			"name":"casa_group.011",
			"rotation":[
				0,
				-0.025637999176979065,
				0,
				0.9996713399887085
			],
			"translation":[
				-4.592523097991943,
				0.32379698753356934,
				0.2814235985279083
			]
		},
		{
			"name":"casa_group.012",
			"rotation":[
				0,
				-0.025637999176979065,
				0,
				0.9996713399887085
			],
			"translation":[
				-5.169410705566406,
				0.3691577911376953,
				0.24340522289276123
			]
		},
		{
			"name":"casa_group.013",
			"rotation":[
				0,
				-0.025637999176979065,
				0,
				0.9996713399887085
			],
			"translation":[
				-5.741339206695557,
				0.4605850279331207,
				0.1996014416217804
			]
		},
		{
			"mesh":0,
			"name":"Plane"
		},
		{
			"name":"Banco",
			"rotation":[
				0,
				0.14361633360385895,
				0,
				0.9896334409713745
			],
			"translation":[
				-1.0527114868164062,
				-0.06067213416099548,
				0.7171345949172974
			]
		},
		{
			"name":"Banco.001",
			"rotation":[
				0,
				0.001132218400016427,
				0,
				1
			],
			"translation":[
				-2.058563232421875,
				-0.025180859491229057,
				0.3290296792984009
			]
		},
		{
			"name":"Banco.002",
			"rotation":[
				0,
				-0.6959031820297241,
				0,
				0.7181356549263
			],
			"translation":[
				-2.4369311332702637,
				-0.00723855197429657,
				0.3641324043273926
			]
		},
		{
			"name":"Banco.003",
			"rotation":[
				0,
				-0.007223974913358688,
				0,
				0.9999738931655884
			],
			"translation":[
				-1.8128471374511719,
				-0.03950387239456177,
				0.35427597165107727
			]
		},
		{
			"name":"Circle",
			"translation":[
				0,
				0.04567372053861618,
				0
			]
		},
		{
			"name":"gira-Empty",
			"rotation":[
				0,
				0.7071068286895752,
				0,
				0.7071067094802856
			],
			"translation":[
				0,
				-0.006042007356882095,
				0
			]
		},
		{
			"name":"handle",
			"translation":[
				0,
				-0.006042007356882095,
				0
			]
		},
		{
			"name":"escorregador.003",
			"scale":[
				0.01216907612979412,
				0.008521350100636482,
				0.008521350100636482
			],
			"translation":[
				-8.630752563476562e-05,
				0.04687947779893875,
				-0.028816387057304382
			]
		}
	],
	"materials":[
		{
			"doubleSided":true,
			"name":"grass",
			"pbrMetallicRoughness":{
				"baseColorFactor":[
					0.17227290570735931,
					0.36723804473876953,
					0.22759456932544708,
					1
				],
				"metallicFactor":0,
				"roughnessFactor":0.5
			}
		},
		{
			"doubleSided":true,
			"name":"wall",
			"pbrMetallicRoughness":{
				"baseColorFactor":[
					0.800000011920929,
					0.800000011920929,
					0.800000011920929,
					1
				],
				"metallicFactor":0,
				"roughnessFactor":0.5
			}
		},
		{
			"doubleSided":true,
			"name":"tree",
			"pbrMetallicRoughness":{
				"baseColorFactor":[
					0.034393664449453354,
					0.1149355098605156,
					0.03149225190281868,
					1
				],
				"metallicFactor":0,
				"roughnessFactor":0.5
			}
		},
		{
			"doubleSided":true,
			"name":"trunk",
			"pbrMetallicRoughness":{
				"baseColorFactor":[
					0.3031978905200958,
					0.16943973302841187,
					0.08303380012512207,
					1
				],
				"metallicFactor":0,
				"roughnessFactor":0.5
			}
		},
		{
			"doubleSided":true,
			"name":"street",
			"pbrMetallicRoughness":{
				"baseColorFactor":[
					0.18552467226982117,
					0.19432762265205383,
					0.31081318855285645,
					1
				],
				"metallicFactor":0,
				"roughnessFactor":0.5
			}
		},
		{
			"doubleSided":true,
			"name":"street.001",
			"pbrMetallicRoughness":{
				"baseColorFactor":[
					0.0651807188987732,
					0.09736318141222,
					0.1192757859826088,
					1
				],
				"metallicFactor":0,
				"roughnessFactor":0.5
			}
		},
		{
			"doubleSided":true,
			"name":"cal\u00e7ada",
			"pbrMetallicRoughness":{
				"baseColorFactor":[
					0.11425098031759262,
					0.17485445737838745,
					0.2165197879076004,
					1
				],
				"metallicFactor":0,
				"roughnessFactor":0.5
			}
		},
		{
			"doubleSided":true,
			"name":"roof",
			"pbrMetallicRoughness":{
				"baseColorFactor":[
					0.4487432539463043,
					0.06719443202018738,
					0.06719443202018738,
					1
				],
				"metallicFactor":0,
				"roughnessFactor":0.5
			}
		}
	],
	"meshes":[
		{
			"name":"Plane.050",
			"primitives":[
				{
					"attributes":{
						"POSITION":0,
						"TEXCOORD_0":1,
						"NORMAL":2
					},
					"indices":3,
					"material":0
				},
				{
					"attributes":{
						"POSITION":4,
						"TEXCOORD_0":5,
						"NORMAL":6
					},
					"indices":7,
					"material":1
				},
				{
					"attributes":{
						"POSITION":8,
						"TEXCOORD_0":9,
						"NORMAL":10
					},
					"indices":11,
					"material":2
				},
				{
					"attributes":{
						"POSITION":12,
						"TEXCOORD_0":13,
						"NORMAL":14
					},
					"indices":15,
					"material":3
				},
				{
					"attributes":{
						"POSITION":16,
						"TEXCOORD_0":17,
						"NORMAL":18
					},
					"indices":19,
					"material":4
				},
				{
					"attributes":{
						"POSITION":20,
						"TEXCOORD_0":21,
						"NORMAL":22
					},
					"indices":23,
					"material":5
				},
				{
					"attributes":{
						"POSITION":24,
						"TEXCOORD_0":25,
						"NORMAL":26
					},
					"indices":27,
					"material":6
				},
				{
					"attributes":{
						"POSITION":28,
						"TEXCOORD_0":29,
						"NORMAL":30
					},
					"indices":31,
					"material":7
				}
			]
		}
	],
	"accessors":[
		{
			"bufferView":0,
			"componentType":5126,
			"count":2262,
			"max":[
				2.2071757316589355,
				0.8077043294906616,
				0.1570308655500412
			],
			"min":[
				-1.5839921236038208,
				-0.36931273341178894,
				-9.511255264282227
			],
			"type":"VEC3"
		},
		{
			"bufferView":1,
			"componentType":5126,
			"count":2262,
			"type":"VEC2"
		},
		{
			"bufferView":2,
			"componentType":5126,
			"count":2262,
			"type":"VEC3"
		},
		{
			"bufferView":3,
			"componentType":5123,
			"count":4014,
			"type":"SCALAR"
		},
		{
			"bufferView":4,
			"componentType":5126,
			"count":6463,
			"max":[
				2.2035508155822754,
				0.9336729049682617,
				0.20425789058208466
			],
			"min":[
				-3.1346049308776855,
				-0.36200395226478577,
				-9.680767059326172
			],
			"type":"VEC3"
		},
		{
			"bufferView":5,
			"componentType":5126,
			"count":6463,
			"type":"VEC2"
		},
		{
			"bufferView":6,
			"componentType":5126,
			"count":6463,
			"type":"VEC3"
		},
		{
			"bufferView":7,
			"componentType":5123,
			"count":12849,
			"type":"SCALAR"
		},
		{
			"bufferView":8,
			"componentType":5126,
			"count":2220,
			"max":[
				1.1153922080993652,
				0.7100536823272705,
				-1.014989972114563
			],
			"min":[
				-1.3375025987625122,
				-0.17415577173233032,
				-6.09608268737793
			],
			"type":"VEC3"
		},
		{
			"bufferView":9,
			"componentType":5126,
			"count":2220,
			"type":"VEC2"
		},
		{
			"bufferView":10,
			"componentType":5126,
			"count":2220,
			"type":"VEC3"
		},
		{
			"bufferView":11,
			"componentType":5123,
			"count":3276,
			"type":"SCALAR"
		},
		{
			"bufferView":12,
			"componentType":5126,
			"count":1185,
			"max":[
				1.162929892539978,
				0.6165188550949097,
				-0.4978615641593933
			],
			"min":[
				-1.2817953824996948,
				-0.3009933531284332,
				-3.652604341506958
			],
			"type":"VEC3"
		},
		{
			"bufferView":13,
			"componentType":5126,
			"count":1185,
			"type":"VEC2"
		},
		{
			"bufferView":14,
			"componentType":5126,
			"count":1185,
			"type":"VEC3"
		},
		{
			"bufferView":15,
			"componentType":5123,
			"count":1743,
			"type":"SCALAR"
		},
		{
			"bufferView":16,
			"componentType":5126,
			"count":384,
			"max":[
				1.688008189201355,
				0.6222622394561768,
				0.09306095540523529
			],
			"min":[
				-0.5471373796463013,
				-0.0886259377002716,
				-6.098018646240234
			],
			"type":"VEC3"
		},
		{
			"bufferView":17,
			"componentType":5126,
			"count":384,
			"type":"VEC2"
		},
		{
			"bufferView":18,
			"componentType":5126,
			"count":384,
			"type":"VEC3"
		},
		{
			"bufferView":19,
			"componentType":5123,
			"count":576,
			"type":"SCALAR"
		},
		{
			"bufferView":20,
			"componentType":5126,
			"count":971,
			"max":[
				1.4669305086135864,
				0.8491432666778564,
				0.8727458715438843
			],
			"min":[
				-0.8261178731918335,
				-0.043578580021858215,
				-9.143219947814941
			],
			"type":"VEC3"
		},
		{
			"bufferView":21,
			"componentType":5126,
			"count":971,
			"type":"VEC2"
		},
		{
			"bufferView":22,
			"componentType":5126,
			"count":971,
			"type":"VEC3"
		},
		{
			"bufferView":23,
			"componentType":5123,
			"count":1377,
			"type":"SCALAR"
		},
		{
			"bufferView":24,
			"componentType":5126,
			"count":583,
			"max":[
				2.186675786972046,
				0.6793274879455566,
				-0.40802615880966187
			],
			"min":[
				-0.5610092878341675,
				-0.12283274531364441,
				-6.318485736846924
			],
			"type":"VEC3"
		},
		{
			"bufferView":25,
			"componentType":5126,
			"count":583,
			"type":"VEC2"
		},
		{
			"bufferView":26,
			"componentType":5126,
			"count":583,
			"type":"VEC3"
		},
		{
			"bufferView":27,
			"componentType":5123,
			"count":873,
			"type":"SCALAR"
		},
		{
			"bufferView":28,
			"componentType":5126,
			"count":1336,
			"max":[
				2.020576000213623,
				0.785213828086853,
				-0.5524552464485168
			],
			"min":[
				-0.38336101174354553,
				-0.03989963233470917,
				-6.098165512084961
			],
			"type":"VEC3"
		},
		{
			"bufferView":29,
			"componentType":5126,
			"count":1336,
			"type":"VEC2"
		},
		{
			"bufferView":30,
			"componentType":5126,
			"count":1336,
			"type":"VEC3"
		},
		{
			"bufferView":31,
			"componentType":5123,
			"count":2520,
			"type":"SCALAR"
		}
	],
	"bufferViews":[
		{
			"buffer":0,
			"byteLength":27144,
			"byteOffset":0,
			"target":34962
		},
		{
			"buffer":0,
			"byteLength":18096,
			"byteOffset":27144,
			"target":34962
		},
		{
			"buffer":0,
			"byteLength":27144,
			"byteOffset":45240,
			"target":34962
		},
		{
			"buffer":0,
			"byteLength":8028,
			"byteOffset":72384,
			"target":34963
		},
		{
			"buffer":0,
			"byteLength":77556,
			"byteOffset":80412,
			"target":34962
		},
		{
			"buffer":0,
			"byteLength":51704,
			"byteOffset":157968,
			"target":34962
		},
		{
			"buffer":0,
			"byteLength":77556,
			"byteOffset":209672,
			"target":34962
		},
		{
			"buffer":0,
			"byteLength":25698,
			"byteOffset":287228,
			"target":34963
		},
		{
			"buffer":0,
			"byteLength":26640,
			"byteOffset":312928,
			"target":34962
		},
		{
			"buffer":0,
			"byteLength":17760,
			"byteOffset":339568,
			"target":34962
		},
		{
			"buffer":0,
			"byteLength":26640,
			"byteOffset":357328,
			"target":34962
		},
		{
			"buffer":0,
			"byteLength":6552,
			"byteOffset":383968,
			"target":34963
		},
		{
			"buffer":0,
			"byteLength":14220,
			"byteOffset":390520,
			"target":34962
		},
		{
			"buffer":0,
			"byteLength":9480,
			"byteOffset":404740,
			"target":34962
		},
		{
			"buffer":0,
			"byteLength":14220,
			"byteOffset":414220,
			"target":34962
		},
		{
			"buffer":0,
			"byteLength":3486,
			"byteOffset":428440,
			"target":34963
		},
		{
			"buffer":0,
			"byteLength":4608,
			"byteOffset":431928,
			"target":34962
		},
		{
			"buffer":0,
			"byteLength":3072,
			"byteOffset":436536,
			"target":34962
		},
		{
			"buffer":0,
			"byteLength":4608,
			"byteOffset":439608,
			"target":34962
		},
		{
			"buffer":0,
			"byteLength":1152,
			"byteOffset":444216,
			"target":34963
		},
		{
			"buffer":0,
			"byteLength":11652,
			"byteOffset":445368,
			"target":34962
		},
		{
			"buffer":0,
			"byteLength":7768,
			"byteOffset":457020,
			"target":34962
		},
		{
			"buffer":0,
			"byteLength":11652,
			"byteOffset":464788,
			"target":34962
		},
		{
			"buffer":0,
			"byteLength":2754,
			"byteOffset":476440,
			"target":34963
		},
		{
			"buffer":0,
			"byteLength":6996,
			"byteOffset":479196,
			"target":34962
		},
		{
			"buffer":0,
			"byteLength":4664,
			"byteOffset":486192,
			"target":34962
		},
		{
			"buffer":0,
			"byteLength":6996,
			"byteOffset":490856,
			"target":34962
		},
		{
			"buffer":0,
			"byteLength":1746,
			"byteOffset":497852,
			"target":34963
		},
		{
			"buffer":0,
			"byteLength":16032,
			"byteOffset":499600,
			"target":34962
		},
		{
			"buffer":0,
			"byteLength":10688,
			"byteOffset":515632,
			"target":34962
		},
		{
			"buffer":0,
			"byteLength":16032,
			"byteOffset":526320,
			"target":34962
		},
		{
			"buffer":0,
			"byteLength":5040,
			"byteOffset":542352,
			"target":34963
		}
	],
	"buffers":[
		{
			"byteLength":547392,
			"uri":"data:application/octet-stream;base64,"
		}
	]
}
